<?xml version="1.0" encoding="UTF-8"?> <svg xmlns="http://www.w3.org/2000/svg" id="Layer_1" data-name="Layer 1" viewBox="0 0 1219 331"><defs><style> .cls-1 { fill: none; } .cls-2 { fill: #5d9bc5; } .cls-3 { fill: #bd6aab; } .cls-4 { fill: #7ac474; } .cls-5 { fill: #408792; } .cls-6 { fill: #5ecae5; } .cls-7 { fill: #7a459b; } .cls-8 { fill: #fff; } </style></defs><g><path class="cls-8" d="M165.69.53L.69,165.53l165,165,89.81-89.81-75.19-75.19,75.19-75.19L165.69.53ZM226.26,240.72l-60.57,60.57L29.93,165.53,165.69,29.77l60.57,60.57-75.19,75.19,75.19,75.19Z"></path><path class="cls-8" d="M1053.35.53l-89.81,89.81,75.19,75.19-75.19,75.19,89.81,89.81,165-165L1053.35.53ZM992.78,240.72l75.19-75.19-75.19-75.19,60.57-60.57,135.76,135.76-135.76,135.76-60.57-60.57Z"></path><path class="cls-6" d="M1054.02,14.77l-75.32,75.32,75.32,75.32,75.32-75.32-75.32-75.32Z"></path><path class="cls-7" d="M1129.34,90.09l-75.32,75.32,75.32,75.32,75.32-75.32-75.32-75.32Z"></path><path class="cls-3" d="M1054.02,165.41l-75.32,75.32,75.32,75.32,75.32-75.32-75.32-75.32Z"></path><path class="cls-2" d="M166.04,14.52l-75.32,75.32,75.32,75.32,75.32-75.32L166.04,14.52Z"></path><path class="cls-5" d="M90.72,89.85L15.4,165.16l75.32,75.32,75.32-75.32-75.32-75.32Z"></path><path class="cls-4" d="M166.04,165.16l-75.32,75.32,75.32,75.32,75.32-75.32-75.32-75.32Z"></path><path class="cls-8" d="M376.61,95.52c0-11.24-4.53-17.04-16.49-17.04-6.16,0-11.24,1.63-16.31,4.53-2.9,1.63-4.35,2.9-6.34,2.9-3.99,0-6.16-4.17-6.16-7.25,0-2.17,1.63-4.35,5.44-6.71,6.89-4.17,15.4-6.34,24.83-6.34,11.6,0,20.3,3.26,25.01,9.79,3.44,4.35,4.89,10.87,4.89,19.75v46.39c0,4.35-1.81,6.52-7.25,6.52-4.53,0-6.71-1.45-6.71-4.89v-4.35c-5.98,6.34-14.14,9.61-24.28,9.61-16.31,0-25.73-9.06-25.73-22.65,0-16.49,14.32-25.19,49.11-27.91v-2.36ZM376.61,108.02c-22.65,2.54-32.98,6.7-32.98,16.67,0,6.34,4.35,11.24,14.5,11.24,6.52,0,12.87-2.36,18.49-7.07v-20.84ZM446.74,96.6l18.67-24.83c3.08-4.17,5.44-5.62,10.87-5.62,4.89,0,6.71,1.45,6.71,3.81,0,1.99-1.45,4.17-3.44,6.52l-23.38,29.9,24.65,31.35c1.81,2.35,3.26,4.35,3.26,6.34,0,2.54-1.63,3.99-7.07,3.99s-8.15-1.45-11.24-5.62l-19.75-26.1-19.57,26.1c-3.08,4.17-5.44,5.62-10.87,5.62-4.89,0-6.71-1.45-6.71-3.99,0-1.99,1.45-3.99,3.26-6.34l24.28-31.17-23.74-30.08c-1.81-2.36-3.26-4.53-3.26-6.52,0-2.36,1.81-3.81,7.07-3.81,5.62,0,8.15,1.45,11.24,5.62l19.03,24.83ZM556.74,127.96c4.35,0,6.52,3.81,6.52,6.71,0,2.54-1.63,4.71-5.26,7.07-6.71,4.53-15.04,6.89-25.01,6.89-24.28,0-38.78-15.77-38.78-41.32s14.14-42.04,36.43-42.04c20.84,0,34.25,15.04,34.25,35.52,0,9.6-3.44,10.69-9.42,10.69h-46.21c1.45,14.86,9.24,24.1,24.46,24.1,5.98,0,11.78-1.27,16.67-4.53,2.72-1.81,4.53-3.08,6.34-3.08ZM530.28,77.39c-11.96,0-19.39,8.52-20.84,22.65h40.59c0-13.23-6.89-22.65-19.75-22.65ZM586.37,95.7h32.8c4.17,0,6.34,2.17,6.34,6.71s-2.17,6.89-6.34,6.89h-32.8c-4.17,0-6.34-2.17-6.34-6.71s2.17-6.89,6.34-6.89ZM656.34,106.75c0,16.85,8.52,28.82,23.38,28.82,5.26,0,9.97-1.63,14.32-4.53,2.36-1.63,3.81-2.9,5.8-2.9,3.99,0,6.71,3.44,6.71,6.89,0,2.72-2.18,5.07-4.53,6.71-5.98,4.53-14.5,6.89-22.65,6.89-22.47,0-38.78-16.49-38.78-41.5s15.95-41.5,38.6-41.5c7.97,0,16.31,1.81,22.83,6.52,3.08,2.17,4.53,4.35,4.53,6.52,0,3.44-2.36,7.43-6.52,7.43-1.81,0-3.08-1.27-5.98-2.9-4.17-2.72-8.52-4.53-14.32-4.53-14.68,0-23.38,11.05-23.38,28.09ZM718.27,107.3c0-25.55,15.58-42.04,39.69-42.04s39.51,16.49,39.51,41.68-15.59,42.04-39.87,42.04-39.33-16.49-39.33-41.68ZM734.04,106.93c0,18.12,9.42,29.54,23.92,29.54s23.56-11.42,23.56-29.18-9.24-29.72-23.74-29.72-23.74,11.42-23.74,29.36ZM825.12,66.16c5.26,0,7.25,2.54,7.07,6.34v5.8c4.71-7.43,13.59-12.5,25.91-12.5,11.42,0,18.48,3.81,23.2,10.51,3.44,4.89,5.26,12.14,5.26,21.38v44.04c0,4.17-2.36,6.34-7.43,6.34s-7.79-2.17-7.79-6.34v-41.68c0-5.44-.91-10.69-3.62-14.5-3.08-4.35-7.97-6.34-14.68-6.34-9.61,0-16.31,4.53-20.12,10.33v52.19c0,4.17-2.36,6.34-7.43,6.34s-7.79-2.17-7.79-6.34v-69.23c0-4.17,2.36-6.34,7.43-6.34Z"></path></g><rect class="cls-1" x=".69" y=".53" width="1217.66" height="330"></rect><g><path class="cls-8" d="M467.38,266.22h41.86c4.17,0,6.33,1.98,6.33,6.5s-2.16,6.68-6.33,6.68h-52.52c-4.87,0-7.22-2.34-7.22-7.21,0-3.99,1.44-6.15,5.42-9.39,23.64-20.04,42.24-29.43,42.24-45.5,0-9.19-6.5-15.52-18.78-15.52-6.49,0-12.27,1.98-16.96,5.25-3.06,2.16-4.33,3.62-6.14,3.62-3.43,0-6.32-3.99-6.32-7.05,0-2.71,2.17-5.22,5.6-7.58,6.32-4.5,14.98-7.21,24.91-7.21,18.4,0,32.3,8.66,32.3,26.89,0,22.55-21.85,33.75-44.4,50.52Z"></path><path class="cls-8" d="M568.3,188.43c24.18,0,38.82,17.88,38.82,46.4s-14.64,46.38-38.82,46.38-38.8-17.88-38.8-46.38,14.79-46.4,38.8-46.4ZM568.3,268.21c14.81,0,23.65-12.81,23.65-33.37s-8.84-33.22-23.65-33.22-23.63,12.63-23.63,33.22,9.02,33.37,23.63,33.37Z"></path><path class="cls-8" d="M639.83,266.22h41.88c4.14,0,6.3,1.98,6.3,6.5s-2.16,6.68-6.3,6.68h-52.53c-4.87,0-7.21-2.34-7.21-7.21,0-3.99,1.43-6.15,5.4-9.39,23.65-20.04,42.24-29.43,42.24-45.5,0-9.19-6.5-15.52-18.76-15.52-6.5,0-12.28,1.98-16.97,5.25-3.06,2.16-4.32,3.62-6.13,3.62-3.44,0-6.33-3.99-6.33-7.05,0-2.71,2.16-5.22,5.6-7.58,6.3-4.5,14.99-7.21,24.91-7.21,18.41,0,32.29,8.66,32.29,26.89,0,22.55-21.82,33.75-44.4,50.52Z"></path><path class="cls-8" d="M769.93,253.66c0,17.83-12.89,30.71-32.69,30.71-10.08,0-18.65-3.31-24.44-9.42-6.43-6.78-9.42-16.68-9.42-29.06,0-24.1,11.07-41.92,29.88-53.5,9.92-6.09,20.14-8.57,24.12-8.57,4.62,0,5.77,3.63,5.77,6.11,0,4.11-2.96,4.62-6.76,5.77-21.8,6.11-34.52,19-38.47,37.14,5.61-5.61,12.89-8.41,21.96-8.41,18.15,0,30.05,11.88,30.05,29.22ZM756.4,253.83c0-11.23-7.44-18.97-20.14-18.97-7.44,0-14.03,2.46-19.48,7.58-.18,1.17-.18,2.32-.18,3.47,0,9.58,2,15.85,5.28,20.14,3.81,4.96,9.74,6.94,15.53,6.94,11.07,0,19-7.76,19-19.16Z"></path></g></svg> 